<svg xmlns="http://www.w3.org/2000/svg" xmlns:xlink="http://www.w3.org/1999/xlink" width="500" zoomAndPan="magnify" viewBox="0 0 375 374.999991" height="500" preserveAspectRatio="xMidYMid meet" version="1.0"><defs><clipPath id="0365e29e7c"><path d="M 52 51 L 222 51 L 222 233 L 52 233 Z M 52 51 " clip-rule="nonzero"/></clipPath><clipPath id="0686a63b11"><path d="M 137.949219 15.503906 L 336.121094 268.03125 L 232.867188 349.058594 L 34.695312 96.53125 Z M 137.949219 15.503906 " clip-rule="nonzero"/></clipPath><clipPath id="3e2d22c80a"><path d="M 137.949219 15.503906 L 336.121094 268.03125 L 232.867188 349.058594 L 34.695312 96.53125 Z M 137.949219 15.503906 " clip-rule="nonzero"/></clipPath><clipPath id="39108a8583"><path d="M 149 131 L 319 131 L 319 313 L 149 313 Z M 149 131 " clip-rule="nonzero"/></clipPath><clipPath id="3be100a413"><path d="M 137.949219 15.503906 L 336.121094 268.03125 L 232.867188 349.058594 L 34.695312 96.53125 Z M 137.949219 15.503906 " clip-rule="nonzero"/></clipPath><clipPath id="dd2bcd7404"><path d="M 137.949219 15.503906 L 336.121094 268.03125 L 232.867188 349.058594 L 34.695312 96.53125 Z M 137.949219 15.503906 " clip-rule="nonzero"/></clipPath><clipPath id="1a0b14fa04"><path d="M 54 149 L 238 149 L 238 316 L 54 316 Z M 54 149 " clip-rule="nonzero"/></clipPath><clipPath id="5644a99129"><path d="M 18.902344 226.625 L 278.457031 37.75 L 355.683594 143.878906 L 96.128906 332.75 Z M 18.902344 226.625 " clip-rule="nonzero"/></clipPath><clipPath id="04500a7ebc"><path d="M 18.902344 226.625 L 278.457031 37.75 L 355.683594 143.878906 L 96.128906 332.75 Z M 18.902344 226.625 " clip-rule="nonzero"/></clipPath><clipPath id="2347386c73"><path d="M 137 55 L 321 55 L 321 222 L 137 222 Z M 137 55 " clip-rule="nonzero"/></clipPath><clipPath id="1cbce4ecc7"><path d="M 18.902344 226.625 L 278.457031 37.75 L 355.683594 143.878906 L 96.128906 332.75 Z M 18.902344 226.625 " clip-rule="nonzero"/></clipPath><clipPath id="0c7e693350"><path d="M 18.902344 226.625 L 278.457031 37.75 L 355.683594 143.878906 L 96.128906 332.75 Z M 18.902344 226.625 " clip-rule="nonzero"/></clipPath></defs><rect x="-37.5" width="450" fill="#ffffff" y="-37.499999" height="449.999989" fill-opacity="1"/><g clip-path="url(#0365e29e7c)"><g clip-path="url(#0686a63b11)"><g clip-path="url(#3e2d22c80a)"><path fill="#006936" d="M 216.855469 202.78125 L 190.46875 223.488281 C 189.332031 224.382812 188.15625 225.21875 186.941406 225.996094 C 185.722656 226.773438 184.472656 227.488281 183.183594 228.144531 C 181.894531 228.796875 180.578125 229.386719 179.234375 229.910156 C 177.886719 230.4375 176.519531 230.894531 175.128906 231.285156 C 173.738281 231.675781 172.332031 231.996094 170.910156 232.25 C 169.488281 232.5 168.058594 232.683594 166.617188 232.792969 C 165.179688 232.90625 163.738281 232.945312 162.292969 232.914062 C 160.847656 232.882812 159.410156 232.785156 157.976562 232.609375 C 156.542969 232.4375 155.121094 232.195312 153.710938 231.886719 C 152.300781 231.574219 150.90625 231.191406 149.535156 230.742188 C 148.164062 230.296875 146.816406 229.78125 145.492188 229.199219 C 144.171875 228.617188 142.878906 227.972656 141.621094 227.265625 C 140.363281 226.554688 139.140625 225.789062 137.960938 224.960938 C 136.777344 224.132812 135.636719 223.246094 134.539062 222.304688 C 133.445312 221.367188 132.398438 220.375 131.398438 219.332031 C 130.402344 218.285156 129.457031 217.195312 128.5625 216.058594 L 61.929688 131.152344 C 61.039062 130.015625 60.207031 128.835938 59.429688 127.621094 C 58.652344 126.402344 57.941406 125.148438 57.289062 123.859375 C 56.636719 122.574219 56.046875 121.253906 55.523438 119.910156 C 55 118.5625 54.546875 117.195312 54.15625 115.804688 C 53.769531 114.414062 53.449219 113.007812 53.199219 111.585938 C 52.949219 110.164062 52.769531 108.730469 52.660156 107.292969 C 52.550781 105.851562 52.511719 104.410156 52.546875 102.96875 C 52.578125 101.523438 52.679688 100.085938 52.855469 98.652344 C 53.027344 97.21875 53.273438 95.796875 53.585938 94.386719 C 53.898438 92.976562 54.28125 91.585938 54.734375 90.214844 C 55.183594 88.84375 55.699219 87.496094 56.28125 86.175781 C 56.867188 84.855469 57.511719 83.566406 58.222656 82.308594 C 58.933594 81.050781 59.703125 79.832031 60.53125 78.648438 C 61.359375 77.46875 62.246094 76.328125 63.1875 75.234375 C 64.128906 74.140625 65.121094 73.09375 66.167969 72.097656 C 67.210938 71.097656 68.304688 70.15625 69.441406 69.265625 L 79.582031 61.308594 C 80.714844 60.417969 81.890625 59.585938 83.109375 58.808594 C 84.324219 58.035156 85.578125 57.320312 86.863281 56.667969 C 88.148438 56.015625 89.464844 55.429688 90.808594 54.90625 C 92.15625 54.382812 93.523438 53.929688 94.910156 53.539062 C 96.300781 53.152344 97.707031 52.832031 99.125 52.582031 C 100.546875 52.332031 101.976562 52.152344 103.414062 52.039062 C 104.851562 51.929688 106.292969 51.890625 107.734375 51.921875 C 109.175781 51.953125 110.613281 52.054688 112.046875 52.230469 C 113.480469 52.402344 114.898438 52.644531 116.308594 52.957031 C 117.714844 53.269531 119.105469 53.648438 120.476562 54.097656 C 121.847656 54.546875 123.195312 55.0625 124.515625 55.644531 C 125.835938 56.222656 127.125 56.867188 128.378906 57.574219 C 129.636719 58.285156 130.855469 59.050781 132.039062 59.878906 C 133.21875 60.707031 134.359375 61.589844 135.453125 62.527344 C 136.546875 63.46875 137.59375 64.460938 138.59375 65.5 C 139.589844 66.542969 140.535156 67.632812 141.425781 68.765625 L 176.398438 113.332031 C 176.929688 114.007812 177.390625 114.730469 177.777344 115.5 C 178.167969 116.265625 178.476562 117.066406 178.710938 117.894531 C 178.941406 118.722656 179.089844 119.566406 179.15625 120.425781 C 179.222656 121.285156 179.203125 122.140625 179.101562 122.996094 C 178.996094 123.851562 178.8125 124.6875 178.542969 125.507812 C 178.277344 126.324219 177.929688 127.109375 177.507812 127.859375 C 177.085938 128.609375 176.59375 129.3125 176.035156 129.964844 C 175.472656 130.617188 174.855469 131.210938 174.175781 131.742188 L 172.875 132.761719 C 172.199219 133.292969 171.476562 133.753906 170.707031 134.144531 C 169.941406 134.53125 169.140625 134.84375 168.3125 135.074219 C 167.484375 135.308594 166.640625 135.457031 165.78125 135.523438 C 164.921875 135.585938 164.066406 135.570312 163.210938 135.464844 C 162.355469 135.363281 161.519531 135.175781 160.703125 134.910156 C 159.882812 134.640625 159.097656 134.296875 158.347656 133.875 C 157.597656 133.453125 156.894531 132.960938 156.242188 132.398438 C 155.589844 131.839844 154.996094 131.21875 154.464844 130.542969 L 117.988281 84.058594 C 117.363281 83.265625 116.671875 82.542969 115.90625 81.886719 C 115.140625 81.230469 114.320312 80.65625 113.441406 80.164062 C 112.5625 79.667969 111.644531 79.265625 110.6875 78.953125 C 109.726562 78.644531 108.75 78.429688 107.75 78.308594 C 106.746094 78.191406 105.746094 78.171875 104.742188 78.25 C 103.734375 78.332031 102.75 78.507812 101.78125 78.78125 C 100.808594 79.054688 99.878906 79.421875 98.980469 79.882812 C 98.082031 80.339844 97.238281 80.882812 96.449219 81.507812 L 85.019531 90.476562 C 84.230469 91.097656 83.511719 91.789062 82.859375 92.554688 C 82.207031 93.316406 81.632812 94.136719 81.140625 95.011719 C 80.652344 95.886719 80.25 96.800781 79.9375 97.753906 C 79.628906 98.710938 79.414062 99.683594 79.292969 100.679688 C 79.171875 101.675781 79.152344 102.675781 79.230469 103.675781 C 79.308594 104.679688 79.480469 105.660156 79.75 106.628906 C 80.023438 107.59375 80.382812 108.523438 80.839844 109.421875 C 81.292969 110.316406 81.828125 111.160156 82.449219 111.949219 L 152.070312 200.664062 C 152.6875 201.453125 153.378906 202.175781 154.140625 202.832031 C 154.902344 203.488281 155.722656 204.0625 156.597656 204.554688 C 157.46875 205.046875 158.382812 205.453125 159.339844 205.765625 C 160.292969 206.078125 161.269531 206.296875 162.265625 206.417969 C 163.261719 206.539062 164.261719 206.5625 165.261719 206.488281 C 166.265625 206.414062 167.25 206.238281 168.214844 205.972656 C 169.183594 205.703125 170.117188 205.339844 171.011719 204.890625 C 171.910156 204.4375 172.753906 203.902344 173.542969 203.28125 L 200.59375 182.054688 C 201.269531 181.523438 201.992188 181.0625 202.761719 180.675781 C 203.527344 180.285156 204.328125 179.976562 205.15625 179.742188 C 205.984375 179.511719 206.828125 179.363281 207.6875 179.296875 C 208.546875 179.230469 209.402344 179.25 210.257812 179.351562 C 211.113281 179.457031 211.949219 179.640625 212.765625 179.910156 C 213.585938 180.175781 214.371094 180.523438 215.121094 180.945312 C 215.871094 181.367188 216.570312 181.859375 217.226562 182.417969 C 217.878906 182.980469 218.472656 183.597656 219.003906 184.277344 C 219.539062 184.953125 220.003906 185.679688 220.398438 186.449219 C 220.792969 187.21875 221.109375 188.019531 221.34375 188.851562 C 221.582031 189.683594 221.734375 190.527344 221.804688 191.390625 C 221.875 192.253906 221.859375 193.113281 221.757812 193.972656 C 221.660156 194.832031 221.476562 195.671875 221.210938 196.496094 C 220.945312 197.320312 220.605469 198.109375 220.183594 198.863281 C 219.761719 199.621094 219.273438 200.328125 218.710938 200.984375 C 218.152344 201.644531 217.535156 202.242188 216.855469 202.78125 Z M 216.855469 202.78125 " fill-opacity="1" fill-rule="nonzero"/></g></g></g><g clip-path="url(#39108a8583)"><g clip-path="url(#3be100a413)"><g clip-path="url(#dd2bcd7404)"><path fill="#006936" d="M 154.101562 161.898438 L 180.5 141.179688 C 181.636719 140.292969 182.808594 139.457031 184.027344 138.683594 C 185.242188 137.910156 186.492188 137.195312 187.78125 136.542969 C 189.066406 135.890625 190.382812 135.304688 191.726562 134.78125 C 193.070312 134.257812 194.4375 133.804688 195.824219 133.414062 C 197.214844 133.027344 198.617188 132.707031 200.039062 132.457031 C 201.457031 132.207031 202.886719 132.023438 204.324219 131.914062 C 205.761719 131.804688 207.203125 131.765625 208.644531 131.796875 C 210.085938 131.828125 211.523438 131.929688 212.953125 132.101562 C 214.386719 132.273438 215.804688 132.515625 217.214844 132.828125 C 218.621094 133.136719 220.011719 133.519531 221.382812 133.964844 C 222.753906 134.414062 224.097656 134.929688 225.417969 135.507812 C 226.738281 136.089844 228.027344 136.734375 229.285156 137.441406 C 230.539062 138.148438 231.757812 138.914062 232.941406 139.738281 C 234.121094 140.566406 235.261719 141.449219 236.355469 142.386719 C 237.449219 143.324219 238.496094 144.316406 239.496094 145.355469 C 240.492188 146.398438 241.4375 147.484375 242.328125 148.621094 L 308.960938 233.527344 C 309.851562 234.664062 310.6875 235.839844 311.460938 237.054688 C 312.238281 238.273438 312.953125 239.523438 313.605469 240.8125 C 314.257812 242.097656 314.84375 243.414062 315.367188 244.757812 C 315.890625 246.105469 316.347656 247.472656 316.734375 248.859375 C 317.125 250.25 317.445312 251.65625 317.695312 253.074219 C 317.945312 254.496094 318.128906 255.925781 318.238281 257.363281 C 318.347656 258.804688 318.386719 260.246094 318.355469 261.6875 C 318.324219 263.128906 318.222656 264.566406 318.050781 266 C 317.878906 267.433594 317.636719 268.851562 317.324219 270.261719 C 317.011719 271.671875 316.628906 273.058594 316.183594 274.429688 C 315.734375 275.800781 315.21875 277.148438 314.636719 278.46875 C 314.054688 279.789062 313.410156 281.078125 312.703125 282.335938 C 311.996094 283.59375 311.230469 284.8125 310.402344 285.996094 C 309.574219 287.175781 308.691406 288.316406 307.75 289.410156 C 306.8125 290.507812 305.820312 291.550781 304.777344 292.550781 C 303.734375 293.546875 302.648438 294.492188 301.511719 295.382812 L 291.371094 303.339844 C 290.238281 304.230469 289.0625 305.0625 287.84375 305.835938 C 286.628906 306.609375 285.375 307.324219 284.089844 307.972656 C 282.804688 308.625 281.488281 309.210938 280.144531 309.734375 C 278.800781 310.257812 277.433594 310.710938 276.042969 311.097656 C 274.65625 311.488281 273.25 311.804688 271.832031 312.054688 C 270.410156 312.304688 268.980469 312.484375 267.542969 312.597656 C 266.105469 312.707031 264.667969 312.746094 263.226562 312.714844 C 261.785156 312.679688 260.347656 312.578125 258.914062 312.40625 C 257.484375 312.234375 256.066406 311.992188 254.65625 311.679688 C 253.25 311.367188 251.859375 310.988281 250.488281 310.539062 C 249.121094 310.089844 247.773438 309.578125 246.453125 308.996094 C 245.132812 308.414062 243.847656 307.773438 242.589844 307.066406 C 241.332031 306.359375 240.113281 305.589844 238.933594 304.765625 C 237.75 303.9375 236.613281 303.054688 235.515625 302.117188 C 234.421875 301.179688 233.375 300.1875 232.378906 299.148438 C 231.382812 298.105469 230.4375 297.019531 229.546875 295.886719 L 194.582031 251.332031 C 194.050781 250.652344 193.589844 249.929688 193.199219 249.164062 C 192.8125 248.394531 192.5 247.597656 192.269531 246.765625 C 192.035156 245.9375 191.886719 245.09375 191.824219 244.234375 C 191.757812 243.375 191.777344 242.519531 191.878906 241.664062 C 191.980469 240.808594 192.167969 239.972656 192.433594 239.15625 C 192.703125 238.335938 193.046875 237.554688 193.46875 236.804688 C 193.894531 236.050781 194.382812 235.351562 194.945312 234.695312 C 195.503906 234.042969 196.125 233.449219 196.800781 232.917969 L 198.089844 231.90625 C 198.769531 231.375 199.492188 230.914062 200.257812 230.527344 C 201.027344 230.136719 201.828125 229.828125 202.65625 229.59375 C 203.484375 229.363281 204.328125 229.214844 205.1875 229.148438 C 206.046875 229.082031 206.902344 229.101562 207.757812 229.203125 C 208.613281 229.308594 209.449219 229.492188 210.265625 229.761719 C 211.085938 230.027344 211.871094 230.375 212.621094 230.796875 C 213.371094 231.21875 214.070312 231.710938 214.726562 232.269531 C 215.378906 232.832031 215.972656 233.449219 216.503906 234.128906 L 252.972656 280.601562 C 253.597656 281.394531 254.292969 282.121094 255.058594 282.777344 C 255.824219 283.433594 256.648438 284.007812 257.527344 284.503906 C 258.410156 284.996094 259.328125 285.398438 260.289062 285.710938 C 261.25 286.023438 262.230469 286.238281 263.234375 286.355469 C 264.238281 286.476562 265.242188 286.492188 266.246094 286.414062 C 267.253906 286.332031 268.242188 286.152344 269.214844 285.878906 C 270.183594 285.601562 271.117188 285.230469 272.015625 284.769531 C 272.914062 284.308594 273.757812 283.765625 274.550781 283.136719 L 285.898438 274.234375 C 286.6875 273.613281 287.410156 272.921875 288.066406 272.15625 C 288.71875 271.394531 289.292969 270.574219 289.785156 269.699219 C 290.28125 268.820312 290.683594 267.90625 290.996094 266.949219 C 291.308594 265.996094 291.523438 265.019531 291.644531 264.019531 C 291.761719 263.023438 291.785156 262.019531 291.707031 261.019531 C 291.628906 260.015625 291.457031 259.03125 291.183594 258.0625 C 290.914062 257.09375 290.550781 256.164062 290.09375 255.265625 C 289.640625 254.371094 289.101562 253.527344 288.480469 252.734375 L 218.859375 164.019531 C 218.238281 163.226562 217.546875 162.503906 216.785156 161.851562 C 216.023438 161.195312 215.203125 160.621094 214.328125 160.125 C 213.453125 159.632812 212.535156 159.230469 211.582031 158.914062 C 210.625 158.601562 209.648438 158.386719 208.652344 158.265625 C 207.652344 158.144531 206.652344 158.121094 205.648438 158.199219 C 204.648438 158.273438 203.664062 158.449219 202.695312 158.71875 C 201.726562 158.988281 200.792969 159.351562 199.898438 159.804688 C 199 160.261719 198.15625 160.796875 197.363281 161.417969 L 170.335938 182.628906 C 169.660156 183.160156 168.9375 183.621094 168.167969 184.007812 C 167.402344 184.398438 166.601562 184.710938 165.773438 184.941406 C 164.945312 185.171875 164.101562 185.320312 163.242188 185.386719 C 162.382812 185.453125 161.527344 185.433594 160.671875 185.332031 C 159.816406 185.226562 158.980469 185.042969 158.160156 184.773438 C 157.34375 184.507812 156.558594 184.160156 155.808594 183.738281 C 155.058594 183.316406 154.355469 182.824219 153.703125 182.265625 C 153.050781 181.703125 152.457031 181.085938 151.925781 180.40625 C 151.386719 179.730469 150.917969 179.007812 150.519531 178.238281 C 150.125 177.464844 149.804688 176.664062 149.566406 175.832031 C 149.328125 174.996094 149.175781 174.148438 149.105469 173.285156 C 149.035156 172.421875 149.050781 171.558594 149.152344 170.699219 C 149.253906 169.839844 149.4375 168.996094 149.707031 168.171875 C 149.976562 167.347656 150.320312 166.558594 150.746094 165.804688 C 151.171875 165.046875 151.667969 164.339844 152.230469 163.683594 C 152.796875 163.027344 153.417969 162.429688 154.101562 161.898438 Z M 154.101562 161.898438 " fill-opacity="1" fill-rule="nonzero"/></g></g></g><g clip-path="url(#1a0b14fa04)"><g clip-path="url(#5644a99129)"><g clip-path="url(#04500a7ebc)"><path fill="#006936" d="M 208.921875 154.566406 L 228.65625 181.691406 C 229.507812 182.855469 230.300781 184.0625 231.035156 185.308594 C 231.765625 186.550781 232.4375 187.828125 233.042969 189.140625 C 233.652344 190.449219 234.191406 191.785156 234.667969 193.148438 C 235.144531 194.511719 235.550781 195.898438 235.890625 197.300781 C 236.230469 198.703125 236.5 200.121094 236.703125 201.550781 C 236.902344 202.980469 237.03125 204.417969 237.089844 205.863281 C 237.148438 207.304688 237.136719 208.746094 237.054688 210.1875 C 236.972656 211.632812 236.820312 213.066406 236.59375 214.492188 C 236.371094 215.917969 236.078125 217.332031 235.714844 218.730469 C 235.351562 220.128906 234.921875 221.503906 234.421875 222.859375 C 233.925781 224.214844 233.359375 225.542969 232.730469 226.84375 C 232.101562 228.144531 231.410156 229.410156 230.65625 230.640625 C 229.902344 231.875 229.09375 233.066406 228.222656 234.21875 C 227.351562 235.371094 226.425781 236.476562 225.445312 237.539062 C 224.464844 238.597656 223.4375 239.609375 222.359375 240.570312 C 221.277344 241.527344 220.15625 242.433594 218.988281 243.285156 L 131.714844 306.789062 C 130.546875 307.640625 129.339844 308.429688 128.09375 309.160156 C 126.847656 309.890625 125.570312 310.5625 124.261719 311.164062 C 122.949219 311.769531 121.613281 312.3125 120.246094 312.785156 C 118.882812 313.257812 117.5 313.664062 116.09375 314 C 114.691406 314.339844 113.273438 314.605469 111.84375 314.804688 C 110.414062 315.003906 108.976562 315.132812 107.535156 315.1875 C 106.089844 315.246094 104.648438 315.230469 103.207031 315.144531 C 101.765625 315.0625 100.332031 314.90625 98.90625 314.679688 C 97.480469 314.453125 96.070312 314.160156 94.671875 313.792969 C 93.273438 313.429688 91.898438 312.996094 90.542969 312.496094 C 89.1875 311.996094 87.863281 311.433594 86.5625 310.800781 C 85.265625 310.171875 84 309.476562 82.769531 308.722656 C 81.539062 307.96875 80.347656 307.15625 79.195312 306.28125 C 78.046875 305.410156 76.941406 304.484375 75.878906 303.503906 C 74.820312 302.523438 73.8125 301.492188 72.851562 300.414062 C 71.894531 299.332031 70.992188 298.207031 70.144531 297.039062 L 62.558594 286.617188 C 61.710938 285.449219 60.921875 284.246094 60.191406 283 C 59.460938 281.757812 58.792969 280.480469 58.1875 279.171875 C 57.582031 277.859375 57.042969 276.523438 56.570312 275.160156 C 56.09375 273.800781 55.6875 272.417969 55.351562 271.015625 C 55.015625 269.613281 54.746094 268.195312 54.546875 266.765625 C 54.347656 265.339844 54.21875 263.902344 54.164062 262.460938 C 54.105469 261.019531 54.117188 259.578125 54.203125 258.140625 C 54.285156 256.699219 54.4375 255.265625 54.664062 253.839844 C 54.886719 252.417969 55.183594 251.007812 55.546875 249.609375 C 55.910156 248.214844 56.339844 246.839844 56.839844 245.484375 C 57.335938 244.132812 57.898438 242.804688 58.527344 241.507812 C 59.15625 240.207031 59.847656 238.945312 60.601562 237.714844 C 61.351562 236.484375 62.164062 235.292969 63.035156 234.140625 C 63.902344 232.988281 64.828125 231.882812 65.808594 230.824219 C 66.785156 229.765625 67.8125 228.753906 68.890625 227.796875 C 69.96875 226.835938 71.089844 225.933594 72.257812 225.085938 L 118.0625 191.753906 C 118.757812 191.246094 119.496094 190.8125 120.277344 190.449219 C 121.058594 190.089844 121.871094 189.808594 122.707031 189.605469 C 123.542969 189.40625 124.394531 189.289062 125.253906 189.253906 C 126.113281 189.21875 126.96875 189.269531 127.820312 189.402344 C 128.667969 189.535156 129.5 189.753906 130.308594 190.050781 C 131.113281 190.347656 131.886719 190.71875 132.621094 191.167969 C 133.355469 191.617188 134.039062 192.136719 134.671875 192.71875 C 135.304688 193.304688 135.875 193.945312 136.378906 194.640625 L 137.351562 195.976562 C 137.859375 196.671875 138.292969 197.410156 138.652344 198.191406 C 139.015625 198.972656 139.296875 199.785156 139.5 200.621094 C 139.699219 201.457031 139.816406 202.304688 139.851562 203.167969 C 139.886719 204.027344 139.835938 204.882812 139.703125 205.734375 C 139.570312 206.582031 139.351562 207.414062 139.054688 208.222656 C 138.757812 209.027344 138.386719 209.800781 137.9375 210.535156 C 137.488281 211.269531 136.96875 211.953125 136.386719 212.585938 C 135.800781 213.21875 135.160156 213.789062 134.464844 214.292969 L 86.6875 249.0625 C 85.875 249.652344 85.125 250.320312 84.441406 251.0625 C 83.757812 251.800781 83.15625 252.601562 82.628906 253.460938 C 82.105469 254.324219 81.667969 255.226562 81.324219 256.171875 C 80.976562 257.117188 80.726562 258.089844 80.570312 259.085938 C 80.417969 260.082031 80.359375 261.082031 80.402344 262.089844 C 80.445312 263.09375 80.585938 264.085938 80.828125 265.066406 C 81.066406 266.046875 81.398438 266.992188 81.824219 267.902344 C 82.25 268.816406 82.761719 269.679688 83.355469 270.492188 L 91.90625 282.238281 C 92.5 283.050781 93.164062 283.796875 93.902344 284.476562 C 94.640625 285.15625 95.4375 285.757812 96.296875 286.277344 C 97.152344 286.800781 98.050781 287.234375 98.992188 287.582031 C 99.9375 287.925781 100.902344 288.179688 101.894531 288.332031 C 102.886719 288.488281 103.882812 288.546875 104.886719 288.503906 C 105.890625 288.464844 106.878906 288.324219 107.855469 288.089844 C 108.832031 287.855469 109.773438 287.527344 110.683594 287.105469 C 111.597656 286.683594 112.457031 286.179688 113.269531 285.589844 L 204.453125 219.234375 C 205.265625 218.644531 206.015625 217.980469 206.695312 217.242188 C 207.378906 216.503906 207.980469 215.707031 208.507812 214.851562 C 209.03125 213.996094 209.46875 213.097656 209.816406 212.15625 C 210.164062 211.214844 210.417969 210.246094 210.574219 209.253906 C 210.730469 208.261719 210.792969 207.265625 210.753906 206.261719 C 210.714844 205.257812 210.578125 204.269531 210.34375 203.292969 C 210.109375 202.316406 209.785156 201.371094 209.363281 200.457031 C 208.945312 199.546875 208.441406 198.683594 207.851562 197.871094 L 187.621094 170.070312 C 187.113281 169.371094 186.679688 168.632812 186.316406 167.851562 C 185.957031 167.070312 185.675781 166.261719 185.472656 165.421875 C 185.273438 164.585938 185.15625 163.738281 185.121094 162.878906 C 185.085938 162.015625 185.136719 161.160156 185.269531 160.3125 C 185.402344 159.460938 185.621094 158.632812 185.917969 157.824219 C 186.214844 157.015625 186.585938 156.246094 187.035156 155.507812 C 187.484375 154.773438 188.003906 154.089844 188.585938 153.457031 C 189.171875 152.828125 189.8125 152.257812 190.507812 151.75 C 191.203125 151.238281 191.945312 150.800781 192.726562 150.433594 C 193.511719 150.066406 194.324219 149.78125 195.164062 149.574219 C 196.003906 149.371094 196.855469 149.246094 197.71875 149.210938 C 198.582031 149.171875 199.441406 149.21875 200.296875 149.347656 C 201.152344 149.480469 201.984375 149.691406 202.796875 149.988281 C 203.613281 150.28125 204.386719 150.652344 205.128906 151.101562 C 205.867188 151.546875 206.558594 152.0625 207.195312 152.648438 C 207.832031 153.230469 208.410156 153.871094 208.921875 154.566406 Z M 208.921875 154.566406 " fill-opacity="1" fill-rule="nonzero"/></g></g></g><g clip-path="url(#2347386c73)"><g clip-path="url(#1cbce4ecc7)"><g clip-path="url(#0c7e693350)"><path fill="#006936" d="M 165.789062 215.796875 L 146.042969 188.664062 C 145.195312 187.496094 144.40625 186.292969 143.675781 185.046875 C 142.945312 183.804688 142.277344 182.527344 141.671875 181.21875 C 141.066406 179.910156 140.527344 178.574219 140.054688 177.210938 C 139.582031 175.851562 139.175781 174.46875 138.835938 173.066406 C 138.5 171.664062 138.230469 170.25 138.03125 168.820312 C 137.832031 167.394531 137.707031 165.957031 137.648438 164.519531 C 137.589844 163.078125 137.601562 161.636719 137.683594 160.195312 C 137.769531 158.757812 137.921875 157.324219 138.148438 155.902344 C 138.371094 154.476562 138.664062 153.066406 139.027344 151.671875 C 139.390625 150.273438 139.820312 148.898438 140.316406 147.546875 C 140.816406 146.191406 141.378906 144.867188 142.003906 143.570312 C 142.632812 142.269531 143.324219 141.007812 144.074219 139.777344 C 144.828125 138.546875 145.636719 137.355469 146.507812 136.203125 C 147.375 135.054688 148.296875 133.949219 149.277344 132.886719 C 150.253906 131.828125 151.28125 130.816406 152.355469 129.859375 C 153.433594 128.898438 154.554688 127.996094 155.71875 127.144531 L 242.992188 63.636719 C 244.160156 62.789062 245.367188 62 246.609375 61.269531 C 247.851562 60.539062 249.128906 59.871094 250.441406 59.265625 C 251.75 58.660156 253.085938 58.117188 254.449219 57.644531 C 255.8125 57.171875 257.195312 56.765625 258.597656 56.425781 C 260 56.089844 261.414062 55.820312 262.84375 55.621094 C 264.273438 55.421875 265.710938 55.292969 267.152344 55.234375 C 268.59375 55.175781 270.035156 55.191406 271.472656 55.273438 C 272.914062 55.355469 274.347656 55.511719 275.773438 55.734375 C 277.199219 55.960938 278.609375 56.253906 280.003906 56.617188 C 281.402344 56.980469 282.777344 57.410156 284.132812 57.910156 C 285.484375 58.40625 286.8125 58.96875 288.109375 59.597656 C 289.410156 60.226562 290.671875 60.917969 291.90625 61.671875 C 293.136719 62.425781 294.328125 63.234375 295.476562 64.105469 C 296.628906 64.976562 297.734375 65.898438 298.792969 66.878906 C 299.855469 67.855469 300.863281 68.886719 301.824219 69.960938 C 302.785156 71.039062 303.6875 72.164062 304.535156 73.328125 L 312.121094 83.753906 C 312.96875 84.917969 313.757812 86.125 314.488281 87.367188 C 315.214844 88.613281 315.882812 89.886719 316.488281 91.199219 C 317.089844 92.507812 317.628906 93.84375 318.101562 95.203125 C 318.574219 96.566406 318.980469 97.949219 319.316406 99.351562 C 319.65625 100.753906 319.921875 102.167969 320.121094 103.597656 C 320.320312 105.023438 320.445312 106.457031 320.503906 107.898438 C 320.5625 109.339844 320.550781 110.78125 320.464844 112.21875 C 320.382812 113.660156 320.226562 115.089844 320.003906 116.515625 C 319.777344 117.941406 319.484375 119.351562 319.121094 120.746094 C 318.757812 122.140625 318.328125 123.515625 317.828125 124.867188 C 317.332031 126.222656 316.769531 127.546875 316.140625 128.84375 C 315.511719 130.144531 314.824219 131.40625 314.070312 132.636719 C 313.320312 133.867188 312.507812 135.058594 311.640625 136.207031 C 310.769531 137.359375 309.847656 138.464844 308.871094 139.523438 C 307.890625 140.585938 306.863281 141.59375 305.789062 142.554688 C 304.710938 143.511719 303.589844 144.417969 302.425781 145.265625 L 256.632812 178.589844 C 255.933594 179.097656 255.195312 179.53125 254.414062 179.890625 C 253.632812 180.253906 252.824219 180.535156 251.984375 180.734375 C 251.148438 180.9375 250.300781 181.054688 249.441406 181.089844 C 248.578125 181.125 247.722656 181.074219 246.875 180.941406 C 246.023438 180.804688 245.195312 180.589844 244.386719 180.292969 C 243.578125 179.996094 242.804688 179.621094 242.070312 179.171875 C 241.335938 178.722656 240.652344 178.207031 240.019531 177.621094 C 239.386719 177.039062 238.820312 176.398438 238.3125 175.703125 L 237.347656 174.378906 C 236.839844 173.679688 236.40625 172.941406 236.046875 172.160156 C 235.683594 171.378906 235.402344 170.570312 235.203125 169.730469 C 235 168.894531 234.882812 168.046875 234.847656 167.1875 C 234.8125 166.324219 234.863281 165.46875 234.996094 164.621094 C 235.132812 163.769531 235.347656 162.941406 235.644531 162.132812 C 235.941406 161.324219 236.316406 160.554688 236.765625 159.820312 C 237.214844 159.082031 237.730469 158.398438 238.316406 157.769531 C 238.898438 157.136719 239.539062 156.566406 240.234375 156.058594 L 288 121.300781 C 288.816406 120.707031 289.566406 120.039062 290.253906 119.296875 C 290.9375 118.554688 291.542969 117.75 292.066406 116.890625 C 292.59375 116.027344 293.027344 115.121094 293.375 114.171875 C 293.722656 113.226562 293.972656 112.253906 294.125 111.253906 C 294.28125 110.257812 294.335938 109.253906 294.292969 108.246094 C 294.246094 107.238281 294.105469 106.242188 293.863281 105.261719 C 293.625 104.28125 293.289062 103.335938 292.859375 102.417969 C 292.433594 101.503906 291.917969 100.640625 291.320312 99.828125 L 282.832031 88.167969 C 282.242188 87.351562 281.574219 86.605469 280.835938 85.925781 C 280.097656 85.242188 279.300781 84.640625 278.441406 84.113281 C 277.585938 83.589844 276.683594 83.15625 275.742188 82.808594 C 274.796875 82.460938 273.828125 82.207031 272.835938 82.054688 C 271.84375 81.898438 270.84375 81.839844 269.839844 81.878906 C 268.835938 81.921875 267.84375 82.058594 266.867188 82.296875 C 265.890625 82.53125 264.945312 82.859375 264.03125 83.28125 C 263.121094 83.703125 262.257812 84.210938 261.445312 84.804688 L 170.257812 151.160156 C 169.445312 151.75 168.699219 152.414062 168.015625 153.152344 C 167.332031 153.890625 166.730469 154.6875 166.203125 155.546875 C 165.679688 156.402344 165.242188 157.304688 164.894531 158.246094 C 164.546875 159.191406 164.292969 160.15625 164.136719 161.152344 C 163.980469 162.144531 163.921875 163.144531 163.960938 164.148438 C 164 165.152344 164.140625 166.144531 164.375 167.121094 C 164.609375 168.097656 164.9375 169.042969 165.359375 169.957031 C 165.78125 170.867188 166.289062 171.730469 166.878906 172.542969 L 187.09375 200.324219 C 187.601562 201.019531 188.035156 201.757812 188.394531 202.539062 C 188.757812 203.324219 189.039062 204.132812 189.238281 204.96875 C 189.441406 205.804688 189.558594 206.65625 189.59375 207.515625 C 189.628906 208.375 189.578125 209.230469 189.445312 210.082031 C 189.308594 210.933594 189.09375 211.761719 188.796875 212.570312 C 188.5 213.378906 188.125 214.148438 187.675781 214.882812 C 187.226562 215.617188 186.710938 216.300781 186.125 216.933594 C 185.542969 217.566406 184.902344 218.136719 184.207031 218.644531 C 183.507812 219.15625 182.769531 219.601562 181.984375 219.96875 C 181.199219 220.335938 180.386719 220.625 179.546875 220.832031 C 178.707031 221.039062 177.851562 221.164062 176.984375 221.203125 C 176.121094 221.242188 175.257812 221.191406 174.402344 221.0625 C 173.546875 220.929688 172.710938 220.714844 171.898438 220.414062 C 171.085938 220.117188 170.308594 219.742188 169.566406 219.289062 C 168.828125 218.839844 168.140625 218.320312 167.503906 217.730469 C 166.867188 217.140625 166.296875 216.496094 165.789062 215.796875 Z M 165.789062 215.796875 " fill-opacity="1" fill-rule="nonzero"/></g></g></g></svg>